<svg id="Layer_1" data-name="Layer 1" xmlns="http://www.w3.org/2000/svg" viewBox="0 0 409 393"><defs><style>.cls-1{fill:#fff;stroke:#000;stroke-miterlimit:10;}</style></defs><title>logo</title><path class="cls-1" d="M997.84,523.42c-10.46,10.87-21.3,21.42-33.44,30.4-22.75,16.81-52.64,25.93-79.82,13.86-22.17-9.85-27.28-34.47-31-56.84-2.46,9.21-2.79,19.19-5.88,28.19-1,3.05-5.64,4.22-7.32,1-8.48-16.47-9.4-35.26-13.9-53-9,16.13-11.35,35.67-16.42,53.18-1.32,4.56-7.46,3.27-7.85-1.06-1.69-18.55-2.48-37-2.52-55.63,0-15.24-.07-30.7-2.73-45.75-2-11.13-5.17-23.37-15.49-29.56-9.86-5.91-19.11-.45-26.13,7.09-8.35,8.95-14.29,20-20,30.78a301.9,301.9,0,0,1-18.56,31.12c-15.57,22.42-34.7,42.87-59.57,54.92-.51.25-1,.47-1.55.71a196.07,196.07,0,0,0,354.15-22.13Q1003.93,517.14,997.84,523.42Z" transform="translate(-631 -242)"/><path class="cls-1" d="M668,516.6c23.23-15.67,41.71-39.85,54.93-64.29,5.77-10.67,11.11-21.59,18-31.63,6.16-9,14-18.71,24.78-22.13s22.57,2.29,29.2,11.07C802.43,419.56,804.59,433,806,445c1.64,14,1.65,28.1,1.67,42.16q0,13.33.72,26.61c3.38-13.65,7.5-27.11,16-38.27,2.08-2.73,6.12-2.54,7.31.95,5.36,15.67,6,32.93,11.14,48.69,1.89-10.46,2.89-21.15,8.92-30.25,1.74-2.63,6.64-2.67,7.31,1,2.64,14.32,4.17,29.09,9.55,42.73,2.67,6.78,6.46,13.56,12.43,17.93s13.49,6.73,20.85,7.79c29.73,4.3,54.24-12,75.05-31.41a397,397,0,0,0,39.5-42.17,196,196,0,0,0,7-52.22c0-108.25-87.75-196-196-196s-196,87.75-196,196a195.1,195.1,0,0,0,20.41,87.15A115.13,115.13,0,0,0,668,516.6Z" transform="translate(-631 -242)"/><circle class="cls-1" cx="398.5" cy="265.5" r="10"/></svg>