<svg id="Layer_1" data-name="Layer 1" xmlns="http://www.w3.org/2000/svg" viewBox="0 0 518.79 164.54"><title>logo</title><path d="M139,366.39c13.52,2.84,26.76-1.26,38.66-7.64,10.82-5.8,20.82-13.24,30.49-20.78,18.71-14.57,35.85-31,52.87-47.49s33.95-33.07,52.32-48A296.76,296.76,0,0,1,341.62,222c4.77-3,9.69-6.3,15-8.32,4.21-1.6,9.88-3.22,14-.42,4.34,3,5.08,9.63,6,14.35a167.69,167.69,0,0,1,2.54,20.34c.92,13.92.47,27.89-.22,41.81s-1.65,28-1.76,42c-.07,9.63,1.23,21.26,9.58,27.43,10.89,8,23.24-.64,31-8.64,4.93-5.06,9.76-10.21,14.64-15.31,4.47-4.67,8.76-10.07,13.88-14a11.33,11.33,0,0,1,6.3-2.74,6.29,6.29,0,0,1,3.62.87,11.64,11.64,0,0,1,3.2,2.61,26.72,26.72,0,0,1,3.16,4c4.38,6.41,8.21,14.25,15.32,18.1a18.46,18.46,0,0,0,15.26,1c5.81-2.14,10.25-6.21,15.25-9.68,3.76-2.61,9.8-6.33,14.37-3.49,2.15,1.33,3.69,3.61,5.59,5.26a30.9,30.9,0,0,0,7,4.66c10.07,4.72,21.72,4.35,32.24,1.34,11.75-3.37,22-10.33,32.48-16.4a101.9,101.9,0,0,1,16.5-8.05,4.6,4.6,0,0,0,3.14-5.53c-.6-2.22-3.23-4-5.53-3.15-12,4.3-22.41,11.52-33.48,17.65-9.51,5.27-19.77,9.28-30.83,8.68a26.81,26.81,0,0,1-13.43-4.25c-4.81-3.19-7.58-8.43-13.62-9.77-6.19-1.37-12.54,1.1-17.7,4.4-4.83,3.1-9,7.49-14.4,9.65-8.25,3.29-12.79-3.3-16.79-9.42-4.21-6.44-8.46-14.17-16.24-16.74-12.1-4-21.16,7.66-28.47,15.31l-14.76,15.42c-4.05,4.24-8.28,9.27-13.85,11.55-9.73,4-13.6-6.49-14.28-14.28-.54-6.06-.16-12.23.06-18.31.25-7,.63-14,1-21,.75-13.95,1.49-27.93,1.1-41.9-.19-6.94-.66-13.86-1.54-20.74-.83-6.51-1.66-13.31-3.77-19.54-2-5.81-5.57-10.72-11.49-12.86-5.27-1.91-11.3-1-16.47.77-5.54,1.93-10.59,4.92-15.56,8s-9.91,6.35-14.71,9.76c-19.36,13.77-37,29.76-54.13,46.16S236.94,301.77,219,317.37c-8.72,7.59-17.7,14.88-27.11,21.6-10,7.13-20.59,14.36-32.54,17.75a37.36,37.36,0,0,1-18,1c-5.65-1.19-8.06,7.49-2.39,8.68Z" transform="translate(-135.79 -202.76)"/><path d="M653.27,357.6l-1.09-1.09a3.36,3.36,0,0,0-1.45-.93,4.13,4.13,0,0,0-3.46,0,3.36,3.36,0,0,0-1.45.93l-.71.91a4.55,4.55,0,0,0-.61,2.28l.16,1.19a4.46,4.46,0,0,0,1.16,2L646.9,364a3.53,3.53,0,0,0,1.45.94,3.36,3.36,0,0,0,1.74.38,3.33,3.33,0,0,0,1.73-.38,3.47,3.47,0,0,0,1.45-.94l.7-.91a4.53,4.53,0,0,0,.62-2.27l-.16-1.19a4.5,4.5,0,0,0-1.16-2Z" transform="translate(-135.79 -202.76)"/></svg>