<svg id="Layer_1" data-name="Layer 1" xmlns="http://www.w3.org/2000/svg" viewBox="0 0 457.93 701.74"><defs><style>.cls-1{fill:#231f20;}.cls-2{fill:none;stroke:#231f20;stroke-miterlimit:10;}</style></defs><title>megs</title><path class="cls-1" d="M298.23,193c-5.07,15-4.35,30.82-1.11,46.16S305.79,269.52,309,285A96.84,96.84,0,0,1,311,309.52a79,79,0,0,1-5.1,23.91c-5.91,15.5-15.55,29.26-23.13,43.94-7.29,14.14-13.37,29.51-13.59,45.63q0,3.06.22,6.11c.07.95,1.57,1,1.5,0-1.33-16.44,4-32.39,11.15-47,7.21-14.76,16.6-28.38,23.27-43.42a83.73,83.73,0,0,0,6.6-23,87.68,87.68,0,0,0-.27-23.78c-2.23-15.68-7.62-30.7-11.45-46s-6.07-31.14-2.3-46.63c.49-2,1.08-4,1.74-5.95.31-.91-1.14-1.31-1.45-.39Z" transform="translate(-269.22 -33.28)"/><path class="cls-1" d="M312.14,165a154.51,154.51,0,0,0-12.22,23.41c-.36.9,1.09,1.28,1.45.4a152.64,152.64,0,0,1,12.06-23c.51-.83-.78-1.58-1.29-.76Z" transform="translate(-269.22 -33.28)"/><path class="cls-1" d="M317.32,156.83l-1.62,2.52a.75.75,0,1,0,1.29.76l1.63-2.52a.76.76,0,0,0-.27-1,.77.77,0,0,0-1,.27Z" transform="translate(-269.22 -33.28)"/><path class="cls-1" d="M451.86,708.58a36,36,0,0,1-11.16,6.91l.73,1.25a3.4,3.4,0,0,1,2.51-1.33l-.73-1.26-2.51,1.34.73,1.25c2.58-2.78,4.85-5.84,7.95-8.09l-1-1a24.45,24.45,0,0,1-7.83,7.94l.91,1.18a19.5,19.5,0,0,1,3.92-4.24l-1-1a9,9,0,0,1-3.8,4.09l.91,1.18a47.15,47.15,0,0,0,9.92-29,99,99,0,0,0-1.94-16.63c-1.06-6.2-4-12-6.12-17.87-4.38-12.17-7.89-24.77-9.22-37.67a100,100,0,0,1-.24-18.55c.53-6.27,2.76-12.37,3-18.58,2.35-52.54-2.22-105.5,6.78-157.6q1.73-10,4.11-19.83a24.66,24.66,0,0,1,1.28-4.73c.37-.77,1-1.39,1.35-2.17,1-2.27,1.34-5.09,2-7.51a325.16,325.16,0,0,1,11.82-35.75c4.68-12,9.94-23.71,15.41-35.35,2.67-5.7,5.41-11.37,8.15-17,2.5-5.15,5.32-10.23,7.23-15.64a68.81,68.81,0,0,0,2.91-34.15C496,236.23,493,224,490.25,211.63s-5.23-25.08-5.81-37.88q-.21-4.53-.09-9.05c.09-2.87.61-5.72.06-8.54a137.71,137.71,0,0,0-4.29-16.73c-6.57-19.87-20.11-38.63-41.41-43.66a66.39,66.39,0,0,0-14.53-1.7c-3,0-5.87.5-8.58-1.08a11.07,11.07,0,0,1-4.88-5.93c-2.77-8,1.87-18.65,6.92-24.7,2.65-3.17,4.94-6.16,5.21-10.43a.77.77,0,0,0-1.29-.53c-1.11,1.05-2.93,2.27-3.58,3.72a.77.77,0,0,0,.11.91l0,0a.75.75,0,0,0,.73.19c1.59-.62,3.05-2.5,3.88-3.94a.75.75,0,0,0-1.18-.91,100.87,100.87,0,0,0-18.77,22.9q-2,3.33-3.73,6.78c-.39.77-.8,2.33-1.59,2.66s-3.15-.68-4.18-.9a36,36,0,0,0-13.8-.22c-9.4,1.65-18.2,6.73-25.2,13.11-7.35,6.69-12.7,16.09-17.36,24.76-5.56,10.32-10.32,21-16.25,31.17a.75.75,0,0,0,1.29.76c9-15.28,15.25-32.1,25.68-46.51,11.28-15.58,30.69-27.13,50.15-20.19a.74.74,0,0,0,.85-.34,102.8,102.8,0,0,1,24-32.91l-1.18-.91c-.53.91-2.29,2-2.57,2.92-.64.32-.5.75.44,1.29a6.68,6.68,0,0,1,.61-.69,20.78,20.78,0,0,0,2.7-2.61l-1.28-.54c-.35,5.67-5,8.78-7.74,13.28a39.75,39.75,0,0,0-4.29,10.93c-1.56,6.44-1.07,13.64,4.84,17.7A8.58,8.58,0,0,0,419,95.69c2.76,0,5.5-.16,8.26,0a59,59,0,0,1,16,3,42.36,42.36,0,0,1,15.09,8.81,70.13,70.13,0,0,1,11.14,12.83c6.41,9.84,10.19,21.08,12.7,32.48,1.4,6.36.49,12.72.7,19.2a156.22,156.22,0,0,0,1.64,17.54c1.77,12.2,4.68,24.18,7.36,36.2,2.71,12.2,6.15,25.11,5.57,37.68-.62,13.41-6.32,24.74-12.05,36.58-5.38,11.12-10.68,22.28-15.62,33.6-4.78,11-9.23,22.09-13,33.43q-3,9-5.49,18.08c-.74,2.75-1.06,6-2.27,8.62a26.45,26.45,0,0,0-2.33,5.69c-12.5,50.39-10,102.41-10.59,153.86-.08,6.52-.21,13-.44,19.57a57.25,57.25,0,0,1-1,10.37c-.7,3.16-1.39,6.3-1.83,9.51a105.88,105.88,0,0,0,1.5,34.47,201.52,201.52,0,0,0,11,35.76c2.36,5.92,3.2,12,4.06,18.3a47.47,47.47,0,0,1-1,18.27,44.88,44.88,0,0,1-8,16.2c-.49.63.11,1.63.9,1.18a10.36,10.36,0,0,0,4.35-4.63c.3-.61-.37-1.5-1-1a20.37,20.37,0,0,0-4.22,4.47c-.49.63.11,1.64.9,1.18a26.41,26.41,0,0,0,8.38-8.48c.4-.6-.42-1.47-1-1-3.21,2.34-5.57,5.44-8.25,8.33-.48.51,0,1.52.73,1.25a10.78,10.78,0,0,0,3.18-1.72c.65-.51-.09-1.36-.73-1.25a5.56,5.56,0,0,0-3.18,1.72c-.5.49,0,1.54.73,1.25a38,38,0,0,0,11.82-7.29c.71-.65-.35-1.7-1.06-1.06Z" transform="translate(-269.22 -33.28)"/><path class="cls-1" d="M277.13,308.48c3.42-7.19,3.13-13.71,1.9-21.39-1.42-8.88-3.46-17.64-5.16-26.47s-3-17.87-2.67-27c.31-8.72,2.57-16.87,4.91-25.22,9.37-33.32,22.22-65.55,37.35-96.65,3.77-7.73,7.47-15.15,12.59-22.08a113.79,113.79,0,0,1,7.6-9.89,102.51,102.51,0,0,1,8.73-8.46,107.16,107.16,0,0,1,9.36-7.2c2.95-2,6.46-3.65,9.17-6a24.81,24.81,0,0,1,5.43-4q2.48-1.23,5-2.41c4.26-2,8.56-4,12.91-5.82a162.74,162.74,0,0,1,23.91-8.06,114.36,114.36,0,0,1,12.72-2.37c4.33-.54,9.5-1.45,13.8-.6,7.6,1.51,13.77,9.16,19.05,14.28q8.76,8.46,17.08,17.33a318.16,318.16,0,0,1,30.49,37.81q3.09,4.56,6,9.23A52.09,52.09,0,0,1,513,125.71q4,12.69,8.61,25.19,8.91,24.4,19.66,48.1,5.43,12,11.27,23.83c1.88,3.82,3.59,7.91,5.81,11.55s4.9,7.39,7.33,11.08c5,7.62,9.05,16.11,13.51,24.09,4.28,7.67,8.52,15.22,13.26,22.62s8.83,14.88,13.44,22.21q7.11,11.28,13.73,22.89c17,29.92,31.28,61.24,44.53,93,6.46,15.51,12.26,31.37,15.57,47.89,3.4,16.94,4.62,34.41,7,51.52,4.67,33.53,10.89,67.11,23,98.85q4.24,11.15,9.45,21.89l1-1c-.45-.26-.76-1.14-1-1.59-.32-.68-.25-1.44-.59-.91l-1.18.15c.79.74,1.29,2.46,1.72,3.37l.85-1.1c-1-.3-2-.63-2.95-1s-1.3,1.11-.4,1.45,2,.69,3,1a.75.75,0,0,0,.84-1.1c-.52-1.12-1-2.8-1.94-3.68a.76.76,0,0,0-1.18.15c-.67,1.05,1.2,4,2.1,4.55a.75.75,0,0,0,1-1C705.18,618,696.8,583.79,691.18,549.26c-2.83-17.33-5-34.76-7.18-52.18a225.06,225.06,0,0,0-11.47-49.51c-5.86-16.24-12.85-32.14-19.89-47.9s-14.41-31.12-22.44-46.26q-6.13-11.57-12.73-22.86c-4.51-7.71-9.54-15.14-13.93-22.91-4.25-7.52-8.82-14.84-13.58-22-5-7.64-9.09-16.12-13.56-24.11-2.25-4-4.5-8.06-6.71-12.11s-4.75-7.77-7.2-11.61c-4.92-7.7-8.82-15.91-12.76-24.15Q537.92,189,528,163.52q-4.83-12.42-9.16-25-2.06-6-4-12.08a62.58,62.58,0,0,0-2.08-6.61,44.16,44.16,0,0,0-2.78-4.74,292.43,292.43,0,0,0-27.7-37.95,450.44,450.44,0,0,0-34.52-35.67,39.18,39.18,0,0,0-8-6.1c-3.28-1.81-6.31-2.16-10-2a110,110,0,0,0-24,3.68,168.06,168.06,0,0,0-23,8q-5.6,2.37-11.08,5c-3.66,1.73-7.61,3.19-10.57,6s-6.69,4.57-10,6.85c-3.07,2.12-6.05,4.38-8.9,6.79a85.35,85.35,0,0,0-15.53,16.8c-2.13,3.12-4.62,6-6.6,9.24-2.38,3.89-4.26,8.17-6.27,12.26q-6,12.25-11.59,24.72c-6.88,15.5-13.16,31.27-18.66,47.31q-4.23,12.3-7.83,24.78c-2.31,8-4.86,16.07-5.62,24.41-1.59,17.48,3.15,34.39,6.38,51.4,1.77,9.34,3.73,18.24-.53,27.19-.41.87.88,1.63,1.3.76Z" transform="translate(-269.22 -33.28)"/><path class="cls-1" d="M303,188a44.24,44.24,0,0,1,1.93-8.6c.3-.92-1.14-1.31-1.44-.4a46.25,46.25,0,0,0-2,9,.76.76,0,0,0,.75.75A.78.78,0,0,0,303,188Z" transform="translate(-269.22 -33.28)"/><path class="cls-1" d="M481.41,192.53a24.41,24.41,0,0,0,4.5-5,.74.74,0,0,0-.27-1,.76.76,0,0,0-1,.27,23.45,23.45,0,0,1-4.27,4.7.75.75,0,1,0,1.06,1.07Z" transform="translate(-269.22 -33.28)"/><path class="cls-1" d="M339.48,263.44a243.34,243.34,0,0,0,13.37,21.23c4,5.73,8.41,11.94,15.15,14.65,6.53,2.64,14.37,2.1,21.12.57a51,51,0,0,0,17.9-7.95,49.54,49.54,0,0,0,14.92-16.36.75.75,0,0,0-1.3-.75,49.29,49.29,0,0,1-29.37,23c-6.44,1.83-13.8,2.64-20.35.92-7.13-1.89-11.72-7.73-15.82-13.47a242.12,242.12,0,0,1-14.33-22.57.75.75,0,0,0-1.29.76Z" transform="translate(-269.22 -33.28)"/><path class="cls-1" d="M341.76,261.75c5.42-1.35,11-2.7,16.66-2.09a20.19,20.19,0,0,1,8.16,2.83,31.82,31.82,0,0,0,7.31,3.59c5.26,1.5,10.85.94,16.23,1.37a69.78,69.78,0,0,1,16.37,3.32,70.52,70.52,0,0,1,17,8.25c.81.53,1.56-.76.76-1.3a72.48,72.48,0,0,0-31.29-11.49c-5.68-.68-11.56-.06-17.18-1.24a25.72,25.72,0,0,1-8-3.57,22.2,22.2,0,0,0-7.84-3.06c-6.21-1-12.51.45-18.52,1.95-.93.23-.53,1.68.4,1.44Z" transform="translate(-269.22 -33.28)"/><path class="cls-1" d="M307.14,273.8l18.55,27.77c5.43,8.12,10.58,16.55,16.79,24.1,5.66,6.89,12.53,12.72,21.06,15.64s17.83,2.71,26.61.93c9.4-1.91,18.38-5.53,27-9.66a243.77,243.77,0,0,0,24.55-13.37c7.58-4.78,14.8-10.34,20.57-17.24,6.21-7.43,10.29-16.22,13.55-25.27A371.56,371.56,0,0,0,492,214.85q.68-3.91,1.29-7.84c.15-.94-1.3-1.35-1.45-.4a394.82,394.82,0,0,1-14.5,61.08c-3,9.27-6.25,18.59-11.47,26.86A70.72,70.72,0,0,1,446.75,314a191.4,191.4,0,0,1-23.08,13.61,153.71,153.71,0,0,1-26.07,11.16c-8.74,2.66-18.1,4.21-27.21,2.69a41.41,41.41,0,0,1-23-12.51C341,322.3,336,314.31,330.87,306.62l-18-26.94L308.43,273c-.53-.79-1.83,0-1.29.76Z" transform="translate(-269.22 -33.28)"/><path class="cls-1" d="M270.55,405.58c8.63,8.89,19.64,14.79,30.44,20.6l18.9,10.18,9.22,5a33.12,33.12,0,0,1,4.25,2.64c1.39,1,2.78,2,4.2,3a170.65,170.65,0,0,0,33.07,17.76c5.43,2.21,11,4.38,15.8,7.75a28.06,28.06,0,0,1,10.21,12.72c4,10,2.6,21.62-2.51,31-5.43,9.92-14.39,17.44-24.08,23l-1.89,1.05a4.51,4.51,0,0,0-1.48.92,3.4,3.4,0,0,0-.55,2.54,5.63,5.63,0,0,0,3.43,3.91c4.69,2.11,8.35-1.51,10.41-5.44,1.18-2.25,2.08-4.64,3.33-6.86a47.26,47.26,0,0,1,4.59-6.64c3.29-4,7-7.71,10.55-11.56a57,57,0,0,0,8.91-12,39.4,39.4,0,0,0,2.88-7.79,39.66,39.66,0,0,1,3.49-9.08c3.39-6.06,7.35-11.84,11-17.71l11.42-18.15,5.57-8.87c.52-.82-.78-1.57-1.29-.76L417.9,478.58c-3.43,5.45-7,10.67-8.75,16.95a46.69,46.69,0,0,1-2.86,8.29,41.46,41.46,0,0,1-3.93,6.3c-6.11,8.17-14.4,14.54-19.72,23.33-1.35,2.23-2.34,4.62-3.47,7s-2.47,4.76-4.82,5.91a5.29,5.29,0,0,1-6-1.37,2.5,2.5,0,0,1-.7-2.5c.24-.56.88-.75,1.4-1,.69-.38,1.37-.76,2.06-1.16,9.33-5.4,18-12.61,23.5-22,5.25-8.86,7.25-19.66,4.65-29.72a29.87,29.87,0,0,0-6.86-12.86c-3.78-4.09-8.69-6.89-13.71-9.17-5.39-2.44-11-4.46-16.31-7a164.5,164.5,0,0,1-16.78-9.08q-4-2.48-7.88-5.18-1.93-1.35-3.82-2.76a35.65,35.65,0,0,0-4.51-2.74L311,429.86c-11.09-6-22.74-11.51-32.68-19.32a68.22,68.22,0,0,1-6.69-6c-.68-.7-1.74.36-1.06,1.06Z" transform="translate(-269.22 -33.28)"/><path class="cls-1" d="M308.89,325.8c15.2,17.43,25.2,38.48,35.33,59.07,5.14,10.47,10.38,20.9,16.39,30.91a358.71,358.71,0,0,0,21.07,31c8.39,11.16,17.22,22,26.05,32.8a.75.75,0,0,0,1.06,0,457.5,457.5,0,0,1,34.35-34c.72-.65-.34-1.7-1.06-1.06a455.6,455.6,0,0,0-34.35,34h1.06c-15.86-19.42-31.76-38.92-45-60.28-12.25-19.84-21.2-41.42-32.41-61.83A178.68,178.68,0,0,0,310,324.74c-.63-.73-1.69.33-1.06,1.06Z" transform="translate(-269.22 -33.28)"/><path class="cls-1" d="M269.83,618.71,279.4,646c3.1,8.84,6,17.77,9.37,26.52a78.19,78.19,0,0,0,5.37,11.6,64.67,64.67,0,0,0,7.77,10.43c6,6.73,12.37,13.12,18.82,19.39q11.08,10.8,22.84,20.88c.73.63,1.79-.43,1.06-1.06a488.36,488.36,0,0,1-39-37.38,83.08,83.08,0,0,1-8.5-10.32,64.21,64.21,0,0,1-6-11.63c-3.42-8.44-6.19-17.17-9.21-25.77l-10.64-30.36c-.32-.9-1.77-.52-1.45.4Z" transform="translate(-269.22 -33.28)"/><path class="cls-1" d="M274.81,619.6c20.33,6.54,41.79,8,63,7.43,21.77-.63,43.41-3.3,65.12-4.8a343.43,343.43,0,0,1,36.72-.84c1,0,1-1.47,0-1.5-21.7-.83-43.35,1.29-64.94,3.19C353.43,625,332,626.68,310.6,625a156.19,156.19,0,0,1-35.39-6.8c-.92-.29-1.31,1.16-.4,1.45Z" transform="translate(-269.22 -33.28)"/><path class="cls-1" d="M273.08,581.13a396.36,396.36,0,0,0,70,5.19c11.68-.17,23.36-.86,35-2.08s23.14-3.11,34.66-5c13.11-2.17,26.35-4.05,39.67-3.3,1,.06,1-1.44,0-1.5-11.57-.65-23.11.68-34.53,2.46-11.65,1.82-23.24,4-35,5.33a394.53,394.53,0,0,1-109.41-2.52c-1-.16-1.35,1.29-.4,1.44Z" transform="translate(-269.22 -33.28)"/><path class="cls-1" d="M315.34,630.58c8.94,19.83,27,34.9,47.65,41.32a70.5,70.5,0,0,0,32.82,2.47A34.17,34.17,0,0,0,412,667.29a48.46,48.46,0,0,0,9.33-11.1c6-9.31,10.75-20.42,20.5-26.54.81-.51.06-1.81-.76-1.29-17.2,10.79-19.18,36.29-39.69,43.1-10.67,3.54-23,2.86-33.74.18A78.17,78.17,0,0,1,339,657.79a73.61,73.61,0,0,1-22.36-28c-.39-.88-1.69-.12-1.29.75Z" transform="translate(-269.22 -33.28)"/><path class="cls-1" d="M314.07,628.06c15.51.83,27.78,12.12,42.63,15.39a35.92,35.92,0,0,0,11.88.6c4.86-.54,9.66-1.56,14.52-2.14a224.13,224.13,0,0,1,29.19-1.38c11.09.12,22.15.8,33.21,1.48,1,.06,1-1.44,0-1.5-19.55-1.21-39.22-2.42-58.77-.5-4.73.47-9.42,1.19-14.11,2a41.27,41.27,0,0,1-13.53.42c-7.53-1.24-14.41-4.77-21.2-8.08-7.53-3.67-15.31-7.3-23.82-7.75-1-.06-1,1.44,0,1.5Z" transform="translate(-269.22 -33.28)"/><path class="cls-1" d="M338,371l29.56,24.37c5,4.1,9.92,8.22,14.91,12.29,3.87,3.15,8.15,5.73,13.15,3.53,2.78-1.23,5.39-2.95,8-4.45l8.4-4.78c5.33-3,10.7-6,16-9.14a87.41,87.41,0,0,0,14.16-9.89,59.89,59.89,0,0,0,9.64-11.08,61.22,61.22,0,0,0,10.51-31.66c0-1-1.46-1-1.5,0a59.6,59.6,0,0,1-8.4,27.92c-5.33,8.94-12.82,15.81-21.6,21.27-5,3.11-10.15,5.93-15.25,8.83l-15.94,9.07c-2.34,1.34-4.87,3.2-7.65,3.32s-5.18-1.45-7.26-3c-4.73-3.61-9.23-7.57-13.82-11.36L339,369.89c-.74-.6-1.8.45-1.06,1.07Z" transform="translate(-269.22 -33.28)"/><path class="cls-1" d="M347.3,263.25a38.25,38.25,0,0,0,19.24,19.88c9.66,4.63,20.62,5.31,31,3.16a68.75,68.75,0,0,0,18.36-6.78.75.75,0,0,0,.15-1.18A40.08,40.08,0,0,0,404,271.68a43.76,43.76,0,0,0-14-2.13c-5-.05-10.19.28-15.09-1.08s-9-4.76-13.89-6.18c-5.3-1.53-10.91-1.47-16.35-1a.76.76,0,0,0-.38,1.4l2,1.21c.83.5,1.58-.8.76-1.3l-2-1.2-.38,1.39a45.92,45.92,0,0,1,14.47.53,28.19,28.19,0,0,1,7,2.71,59.82,59.82,0,0,0,6.24,3.16c4.43,1.73,9.28,1.83,14,1.82s9.63,0,14.35,1.24A38.1,38.1,0,0,1,415,279.39l.16-1.18c-9.71,5.18-20.7,8.33-31.77,7.69a42.1,42.1,0,0,1-25.71-10.43,34.3,34.3,0,0,1-9-12.62c-.35-.88-1.8-.5-1.44.4Z" transform="translate(-269.22 -33.28)"/><path class="cls-1" d="M484.38,386.51C481.42,406,472.31,423.82,468,443c-2.23,9.81-3.67,19.77-4.94,29.74-1.33,10.36-2.57,20.72-3.85,31.09s-2.7,20.77-3.75,31.19c-.52,5.16-.89,10.34-.93,15.53s.25,10.24.31,15.37a74.84,74.84,0,0,1-1.14,15.53c-1,4.85-2.45,9.56-3.86,14.29-2.79,9.35-4.44,18.69-4,28.47.79,19.55,7.91,38.21,15.46,56,.94,2.23,1.9,4.46,2.86,6.68.38.89,1.67.12,1.29-.76-7.8-18.06-15.73-36.73-17.73-56.5a79.45,79.45,0,0,1,2.22-28.68c2.54-9.46,5.87-18.53,6.35-28.41.49-10.18-.57-20.34.11-30.53s2.18-20.57,3.44-30.82,2.55-20.7,3.83-31.05c1.23-10,2.49-20.08,4.4-30a207.32,207.32,0,0,1,7.84-28.56c3.15-9.12,6.53-18.19,8.67-27.61q.79-3.49,1.33-7c.14-.94-1.3-1.35-1.45-.4Z" transform="translate(-269.22 -33.28)"/><path class="cls-1" d="M509.8,324.84A214.39,214.39,0,0,0,493.46,401,219.43,219.43,0,0,0,496,440c2.07,13.7,5.11,27.22,7.62,40.84s4.47,27.2,4.3,41c-.18,14.12-3.47,27.58-6.83,41.21a224.64,224.64,0,0,0-6.3,40.44,315.75,315.75,0,0,0,.54,41.61c1,13.93,2.67,27.8,4.44,41.65,1.66,13,2.88,26.36,7,38.87a74.12,74.12,0,0,0,3.36,8.39c.41.87,1.7.11,1.29-.76-5.71-12.13-7.48-25.52-9.19-38.68-1.77-13.71-3.53-27.43-4.77-41.2-2.46-27.54-2.77-55.53,3.31-82.65,3-13.2,7-26.18,8.16-39.72,1.15-13.18,0-26.44-2-39.48-4.12-26.77-11.43-52.93-12-80.16a212.9,212.9,0,0,1,12.8-77.12q1.66-4.55,3.52-9c.38-.89-1.08-1.28-1.44-.4Z" transform="translate(-269.22 -33.28)"/><path class="cls-1" d="M504.27,421.77q5.73,28,10.39,56.14c3,18.17,5.91,36.54,5.28,55a113.27,113.27,0,0,1-4,27c-2.42,8.51-5.76,16.81-6.74,25.66-2,18,5.67,35.46,5.18,53.47-.48,17.75-6.37,34.91-6.35,52.71q0,3.3.31,6.6c.09.95,1.59,1,1.5,0-1.63-17.9,4-35.27,5.65-53A99.66,99.66,0,0,0,514,618.83c-1.55-8.91-3.59-17.81-3.66-26.89-.07-9.29,2.74-17.94,5.5-26.7a119,119,0,0,0,5.25-26.36c1.44-18.12-1-36.3-3.82-54.17q-4.51-28.26-10.15-56.35-.7-3.5-1.42-7c-.19-.95-1.64-.55-1.44.4Z" transform="translate(-269.22 -33.28)"/><path class="cls-1" d="M538.56,505.85a191.71,191.71,0,0,1-2.95,109.84c-2.28,7-4.86,13.86-7,20.88a92.55,92.55,0,0,0-4.2,21.28,63.13,63.13,0,0,0,2.29,20.6c4.16,15.12,12.82,28.55,21.61,41.34.55.79,1.85,0,1.3-.75-7.93-11.54-15.72-23.52-20.21-36.88a65.19,65.19,0,0,1-3.6-20.46A79.24,79.24,0,0,1,529.17,640c2-7.07,4.52-14,6.87-20.91a205.6,205.6,0,0,0,6-21.21,193.93,193.93,0,0,0-2-92.47.75.75,0,0,0-1.44.4Z" transform="translate(-269.22 -33.28)"/><path class="cls-1" d="M561.54,591.61c-5,15.54-13.55,29.61-19.41,44.81-5.74,14.92-8.7,31.2-3.39,46.69,2.85,8.33,7.41,15.92,11.93,23.43.5.82,1.8.07,1.3-.76-4-6.63-8.05-13.32-10.87-20.56A53.57,53.57,0,0,1,537.5,662c1.07-16.14,8.25-30.95,15.09-45.31A206.62,206.62,0,0,0,563,592c.3-.92-1.15-1.31-1.45-.4Z" transform="translate(-269.22 -33.28)"/><path class="cls-1" d="M553.61,688.9c-1.17-24.65,4.8-49.19,2.37-73.84a85.74,85.74,0,0,0-4.16-19.58c-.31-.9-1.76-.51-1.44.4,8,23.35,3.59,48.33,2.06,72.32a185.67,185.67,0,0,0-.33,20.7c0,1,1.55,1,1.5,0Z" transform="translate(-269.22 -33.28)"/><path class="cls-1" d="M565.22,683.19q.12-24.15,1.29-48.28c.73-14.91,1.23-30.08,4.22-44.75a86.56,86.56,0,0,1,6.72-20.62c3-6.2,7-11.8,10.72-17.61s7-12.18,8.48-19.11c1.54-7.15,1.6-14.5,1.62-21.78q.06-27.1.09-54.2a.75.75,0,0,0-1.5,0l-.08,48.26c0,7.74.23,15.58-.86,23.26a53,53,0,0,1-7.26,19.9c-3.57,6-7.77,11.65-11.11,17.81a81.72,81.72,0,0,0-7.31,19.4c-3.48,14.18-4.13,28.94-4.92,43.47q-1.47,27.1-1.6,54.25a.75.75,0,0,0,1.5,0Z" transform="translate(-269.22 -33.28)"/><path class="cls-1" d="M635,427.06a111.59,111.59,0,0,1,22.9,40c5.13,15.9,7.11,32.62,10.54,48.91a507.9,507.9,0,0,0,13,49.13c4.6,14.47,9.55,29,16.19,42.7,5.95,12.28,13.68,24.07,24.52,32.57q1.92,1.5,3.94,2.86c.8.54,1.55-.76.76-1.29-11.58-7.8-19.91-19.27-26.25-31.53-6.94-13.44-11.94-27.92-16.61-42.28q-7.8-23.94-13.2-48.57c-3.58-16.3-5.6-33-10.23-49a114.43,114.43,0,0,0-20.83-40.21q-1.76-2.17-3.62-4.26c-.65-.73-1.71.34-1.07,1.06Z" transform="translate(-269.22 -33.28)"/><path class="cls-1" d="M670,566.14c-3.1,3.55-2.65,8.6-2.61,13,0,5.45.15,10.9.7,16.33a71.6,71.6,0,0,0,3.16,15.61,99,99,0,0,0,6.25,13.81c2.71,5.24,5.41,10.5,6.94,16.23a.75.75,0,0,0,1.45-.4c-2.55-9.53-8.28-17.67-12-26.73-4-9.82-4.8-20.44-5-30.93,0-2.8-.12-5.61,0-8.4.06-2.63.39-5.4,2.18-7.45.63-.72-.42-1.79-1.06-1.06Z" transform="translate(-269.22 -33.28)"/><path class="cls-1" d="M675.87,602.05l6.7,12.13c2.18,4,4.67,7.91,5.84,12.3,2.25,8.44-.52,17.26.68,25.82.14,1,1.58.54,1.45-.4-1.22-8.72,1.67-17.66-.8-26.26-1.21-4.19-3.54-8-5.64-11.78l-6.93-12.57c-.47-.84-1.77-.09-1.3.76Z" transform="translate(-269.22 -33.28)"/><path class="cls-1" d="M668,629c-1.3-29.57-5.74-58.86-10.08-88.1q-1.87-12.55-3.74-25.12c-.14-.95-1.58-.54-1.44.4,4.35,29.33,9.21,58.65,12,88.17.78,8.2,1.38,16.42,1.74,24.65,0,1,1.54,1,1.5,0Z" transform="translate(-269.22 -33.28)"/><path class="cls-1" d="M641.28,546.51c7.3,17.25,2.93,36.48,2.63,54.51a99.08,99.08,0,0,0,11.53,48.18,97.44,97.44,0,0,0,16.4,22.44c.68.69,1.74-.37,1.06-1.06a97.15,97.15,0,0,1-24.38-43.17,95.78,95.78,0,0,1-3.13-25c.06-9.15,1.14-18.25,1.45-27.38.34-9.94-.35-20-4.26-29.23-.38-.88-1.67-.12-1.3.76Z" transform="translate(-269.22 -33.28)"/><path class="cls-1" d="M642.73,649c.79-10.08-5.6-18.64-11-26.48-6.08-8.76-11-18.2-13.38-28.66a57.15,57.15,0,0,1-1.39-16.12,78.3,78.3,0,0,1,3.37-17c1.59-5.51,3.28-11,4.56-16.58a165.48,165.48,0,0,0,3-56.14c-.11-.94-1.61-.95-1.5,0a164.66,164.66,0,0,1,.37,35.09,180.24,180.24,0,0,1-7,34.08,108.71,108.71,0,0,0-4,16.56,56.35,56.35,0,0,0,.17,15.83,75.52,75.52,0,0,0,11.4,29.22c5.85,9.17,14.77,18.51,13.85,30.2-.08,1,1.42,1,1.5,0Z" transform="translate(-269.22 -33.28)"/><path class="cls-1" d="M597.59,693.07c4.06-16.46,5.48-33.41,6-50.31.58-17.11.31-34.24,1.14-51.34s2.87-34.2,7.83-50.65c2.57-8.49,5.7-16.8,8.29-25.28a168.06,168.06,0,0,0,5.59-25.67c2.39-17.22,2.53-34.64,2.39-52,0-2.15,0-4.3-.06-6.45a.75.75,0,0,0-1.5,0c.17,17.38.33,34.81-1.54,52.12A174.56,174.56,0,0,1,621,509.55c-2.27,8.49-5.32,16.73-8.06,25.08a179.4,179.4,0,0,0-6.36,24.91,235.88,235.88,0,0,0-2.93,24.87c-1.16,17-1,34-1.35,51.05s-1.3,34.29-4.79,51.08c-.43,2.05-.9,4.1-1.4,6.13-.23.94,1.22,1.34,1.45.4Z" transform="translate(-269.22 -33.28)"/><path class="cls-1" d="M551.28,385.11c-.48,15.68-1,31.46.94,47.07,1.83,15.06,6.48,29.37,11.19,43.72s8.65,28.62,10.91,43.48a228.43,228.43,0,0,1-5.69,95,.75.75,0,0,0,1.45.4,230,230,0,0,0,6.59-89.19,240.4,240.4,0,0,0-9.78-43.85c-4.58-14.38-9.83-28.62-12.31-43.56-2.9-17.54-2.34-35.41-1.8-53.11,0-1-1.47-1-1.5,0Z" transform="translate(-269.22 -33.28)"/><path class="cls-1" d="M595.86,375.06C607,391.83,612.54,411.43,616.64,431c1.15,5.5,2.2,11,3.24,16.55.18.95,1.63.55,1.45-.4-3.7-19.64-7.51-39.55-15.88-57.84a108.94,108.94,0,0,0-8.29-14.95c-.54-.8-1.84-.05-1.3.75Z" transform="translate(-269.22 -33.28)"/><path class="cls-1" d="M479.69,467.71c-3.59,17.42-4.43,35.26-3.56,53,.87,17.91,3.4,35.69,6.35,53.36,1.49,8.88,3.12,17.74,4.65,26.62a106.14,106.14,0,0,1,1.63,13.52,64.17,64.17,0,0,1-1,13.84c-1.5,8.52-4.08,16.83-6.17,25.21-2,8-3.76,16-4.94,24.16-2.24,15.49-2.36,31.69,3.22,46.53q1,2.71,2.27,5.34c.41.87,1.71.11,1.29-.76-6.92-14.6-7.71-31-5.84-46.82a210.24,210.24,0,0,1,4.47-24c1.95-8.2,4.37-16.3,6.2-24.53a84,84,0,0,0,1.95-12.91A69.53,69.53,0,0,0,489.6,607c-1.14-8.73-2.94-17.38-4.44-26.05-3.05-17.62-5.82-35.33-7.1-53.17s-1.09-35.64,1.87-53.2c.36-2.15.77-4.28,1.21-6.42.19-.94-1.25-1.34-1.45-.4Z" transform="translate(-269.22 -33.28)"/><path class="cls-1" d="M299.3,194.24l2.51-5.92a.78.78,0,0,0-.27-1,.76.76,0,0,0-1,.27l-2.5,5.93a.77.77,0,0,0,.27,1,.74.74,0,0,0,1-.27Z" transform="translate(-269.22 -33.28)"/><path class="cls-1" d="M314.09,165.57l8.69-14.38a.75.75,0,0,0-1.29-.76l-8.69,14.39c-.51.82.79,1.58,1.29.75Z" transform="translate(-269.22 -33.28)"/><path class="cls-1" d="M374.23,133a.75.75,0,0,0,0-1.5.75.75,0,0,0,0,1.5Z" transform="translate(-269.22 -33.28)"/><circle class="cls-2" cx="66.28" cy="165.22" r="39"/><circle class="cls-2" cx="168.28" cy="180.22" r="39"/><path class="cls-1" d="M374.24,191.07a17.42,17.42,0,0,1,27,3.73.75.75,0,0,0,1.29-.76,18.93,18.93,0,0,0-29.39-4c-.7.66.36,1.72,1.07,1.06Z" transform="translate(-269.22 -33.28)"/><path class="cls-1" d="M472.83,194.93c.51-.07.79.06.84.38-.58,0-.8.17-.65.42a1.67,1.67,0,0,0,.11.34c.1.44.17.9.26,1.35l.53,2.77c.13.7,1,.64,1.37.18A64.8,64.8,0,0,1,484.82,190c.73-.64-.34-1.69-1.06-1.06A66.54,66.54,0,0,0,474,199.61l1.38.18-.62-3.2c-.15-.8-.25-1.92-1.15-2.26a1,1,0,0,0-1.43,1c0,.69.75,1.37,1.42.87s0-1.87-.76-1.29Z" transform="translate(-269.22 -33.28)"/><path class="cls-1" d="M397.72,78.23a82,82,0,0,0-45.17,9.12c-6.11,3.23-11.95,7.35-16.07,13-4.67,6.37-5.73,14.1-7.41,21.6-3.24,14.42-11.06,27-18.56,39.56-7.68,12.81-14.82,25.88-17.41,40.77-2.72,15.69-1.13,31.93,3.37,47.14q.87,2.91,1.87,5.79c.32.9,1.77.51,1.45-.4-5.19-14.88-7.69-30.84-6-46.57a82.61,82.61,0,0,1,5.57-22.31,146,146,0,0,1,9.84-19.25c7.09-12.08,15-23.92,19.41-37.33,2.37-7.19,2.9-14.93,5.71-22,2.69-6.74,8-11.86,14-15.75A78.84,78.84,0,0,1,392,79.43c1.91,0,3.82.14,5.72.3,1,.09,1-1.41,0-1.5Z" transform="translate(-269.22 -33.28)"/><path class="cls-1" d="M308.74,124.06c-3.63,15.05-9.53,29.39-15.27,43.71-5.66,14.13-11.27,28.41-14.26,43.39a106.77,106.77,0,0,0-2.17,23A143.27,143.27,0,0,0,280,259c3.19,16.28,8.15,32.23,10.15,48.74,1.8,14.85,1.45,30.6-4.8,44.45-.77,1.72-1.63,3.38-2.56,5a.75.75,0,0,0,1.29.76c7.49-13.08,9.25-28.4,8.24-43.22-1.11-16.17-5.49-31.79-9.05-47.52A193.57,193.57,0,0,1,279,241.68a103.75,103.75,0,0,1,.66-24.08c2.23-15.22,7.52-29.77,13.15-44s11.81-28.62,16-43.53q.78-2.77,1.45-5.6c.23-.94-1.22-1.34-1.44-.4Z" transform="translate(-269.22 -33.28)"/><path class="cls-1" d="M307.26,127.67l13.16-28c.41-.87-.89-1.63-1.3-.75l-13.15,28c-.41.87.88,1.63,1.29.76Z" transform="translate(-269.22 -33.28)"/></svg>