<svg id="illustration" xmlns="http://www.w3.org/2000/svg" viewBox="0 0 645.03 677"><defs><style>.cls-1{opacity:0.8;}.cls-2{fill:#f6ac8b;}.cls-3{fill:#231f20;}.cls-4{fill:#f3903f;}.cls-5{fill:#fbb040;}.cls-6{fill:#3c2415;}.cls-7{fill:#5a381c;}.cls-8{fill:#cd694f;}.cls-9{opacity:0.7;}.cls-10{fill:#612b07;}.cls-11{fill:#8c4633;}.cls-12{fill:#f79c71;}.cls-13{fill:#fdc98a;}.cls-14{fill:#482e12;}.cls-15{fill:#a97c50;}</style></defs><title>two_girls</title><g class="cls-1"><path class="cls-2" d="M363.61,270.15c12.69,25.43,3.42,55.67,2.73,84.07-.19,7.74.33,15.68,3.38,22.8,3.63,8.47,10.52,15.06,15.38,22.89,6.73,10.81,9.4,23.61,14.39,35.33,10.05,23.63,29.16,42.15,49,58.45,5.36,4.4,10.88,8.73,17.19,11.62,6.6,3,13.82,4.36,20.81,6.29a122.83,122.83,0,0,1,23.63,9.23c7.07,3.63,14,8,21.9,9.08,12.54,1.67,24.75-5.64,33.22-15s14.22-20.87,21.6-31.15c8.68-12.12,20.07-23.55,21.94-38.34.86-6.86-.46-13.8-.41-20.72.17-24.37,17.2-47.72,11.71-71.46-1.81-7.83-6-14.88-10.05-21.79l-23.65-39.9c.68,6.53-.17,15.29-6.6,16.58-3.71.74-7.25-1.71-10.17-4.12a157.12,157.12,0,0,1-22-22.18c-8.14-10-15.19-21.23-25.48-29-12.44-9.43-28.26-12.91-43.53-16.14-6.23-1.32-12.54-2.65-18.9-2.3a72.65,72.65,0,0,0-14.41,2.78l-66.5,17.57c-4.69,1.24-9.64,2.63-13,6.14s-4.17,9.9-.39,12.94" transform="translate(-55.46 -167.35)"/></g><path class="cls-3" d="M586.89,257.05c-.17,11.05,4.42,21.56,8.92,31.66a23,23,0,0,0,3.72,6.41,54.71,54.71,0,0,0,5.15,4.29c3.75,3.22,6.15,7.7,8.47,12.08L628.76,341a3.78,3.78,0,0,0,.91,1.28c1.09.87,2.82.31,3.65-.81a7.8,7.8,0,0,0,1.17-3.95c1.08-9.87,2.11-20.16-1.29-29.49a64.64,64.64,0,0,0-5.37-10.51l-22-37.36c-2.15-3.64-4.61-7.56-8.6-9s-9.54,1.6-8.76,5.76" transform="translate(-55.46 -167.35)"/><path class="cls-3" d="M586.39,257.05c-.09,7.51,2,14.82,4.67,21.77,1.36,3.49,2.88,6.92,4.4,10.34a29.69,29.69,0,0,0,2.46,4.71,16.24,16.24,0,0,0,3.5,3.62,44.5,44.5,0,0,1,4,3.26,27.1,27.1,0,0,1,3.33,4.08,100.59,100.59,0,0,1,5.27,9.33l11.35,21.45q1.44,2.68,2.86,5.39c.68,1.28,1.55,2.35,3.14,2.13,3.49-.47,3.55-4.78,3.84-7.46.78-7.34,1.4-14.84,0-22.15a38.5,38.5,0,0,0-3.65-10.43c-1.78-3.48-3.85-6.8-5.83-10.16l-12.39-21-6.07-10.3c-1.63-2.76-3.19-5.66-5.45-8-1.91-2-4.47-3.52-7.29-3.3a7.55,7.55,0,0,0-6,3.49A4.79,4.79,0,0,0,588,257c.11.64,1.08.37,1-.26-.41-2.44,1.63-4.33,3.75-5.07a7.38,7.38,0,0,1,7.19,1.5,24.49,24.49,0,0,1,5.41,7q2.9,4.91,5.78,9.83l11.76,20c1.93,3.28,3.88,6.54,5.78,9.83a48.88,48.88,0,0,1,4.59,9.8c2.12,6.78,2,14,1.45,21-.14,1.75-.32,3.5-.51,5.24-.17,1.57-.17,3.38-.95,4.79-.67,1.21-2.5,2.19-3.54.83a16.21,16.21,0,0,1-1.3-2.34L627,336.53l-10.84-20.46c-1.64-3.09-3.21-6.23-5-9.26a31,31,0,0,0-5.8-7.48c-1.29-1.16-2.74-2.11-4.06-3.23a14.2,14.2,0,0,1-3.18-3.81,46.85,46.85,0,0,1-2.15-4.46c-.72-1.63-1.44-3.25-2.14-4.88-2.81-6.6-5.36-13.47-6.17-20.65a43.85,43.85,0,0,1-.26-5.25.5.5,0,0,0-1,0Z" transform="translate(-55.46 -167.35)"/><path class="cls-3" d="M463.53,502.41a72.29,72.29,0,0,1,4.33,32.38A314.65,314.65,0,0,1,576.7,580.61c11.92,7.95,23.36,16.75,36.18,23.15s27.45,10.33,41.54,7.71c14.31-2.67,26.51-11.7,37.84-20.84A283.46,283.46,0,0,1,624.64,514a22.39,22.39,0,0,1-3-6.62c-.71-3.27,0-6.65.69-9.92a425,425,0,0,0,8.74-97.82c-.06-2.36-.77-5.43-3.12-5.62-8.78,12.45-8.8,28.78-11.81,43.71-2.78,13.83-8.32,26.94-14.28,39.73Q590.26,502.3,576.4,526c-3.58,6.13-7.65,12.54-14.1,15.5-7.23,3.31-15.87,1.46-22.91-2.24s-13-9.07-19.77-13.32c-6-3.78-12.48-6.64-18.95-9.49l-23.58-10.36c-3.06-1.35-6.55-2.7-9.63-1.4s-3.95,6.69-.75,7.66" transform="translate(-55.46 -167.35)"/><path class="cls-3" d="M463.05,502.54a72.74,72.74,0,0,1,4.31,32.25.5.5,0,0,0,.37.48,314.32,314.32,0,0,1,91,34.78q10.62,6.09,20.73,13c7,4.75,13.82,9.69,21,14.18,13.75,8.66,29.34,15.89,46,15.56,15.88-.31,29.5-8.69,41.68-18.15,1.55-1.2,3.08-2.42,4.61-3.65a.5.5,0,0,0,0-.7,283.41,283.41,0,0,1-58-61.7c-2-2.9-4-5.85-5.85-8.82a95.34,95.34,0,0,1-5.51-9.21c-1.92-4-1.52-7.93-.67-12.11.81-3.92,1.59-7.84,2.3-11.78a425,425,0,0,0,5.83-47.18q.81-12,.94-24,.06-6,0-12c0-2.69.32-6.12-1.31-8.47a3.29,3.29,0,0,0-2.4-1.44.49.49,0,0,0-.44.25c-4.88,7-7.13,15.32-8.59,23.64-1.56,8.82-2.43,17.74-4.7,26.43A181,181,0,0,1,603.82,472c-4.13,9.15-8.54,18.18-13.15,27.09s-9.5,17.8-14.59,26.51c-4.22,7.22-9.25,15-18.06,16.79-9.41,1.86-18.47-3-25.91-8.21-3.76-2.63-7.38-5.46-11.22-8a101,101,0,0,0-13-7c-9.28-4.3-18.71-8.28-28.07-12.39-3.73-1.64-8.43-4.32-12.56-2.51a5.53,5.53,0,0,0-2.9,6.33,3.34,3.34,0,0,0,2.21,2.26c.61.21.87-.75.26-1-1.5-.52-1.84-2.14-1.55-3.56a4.37,4.37,0,0,1,3-3.4c2.38-.68,4.91.14,7.12,1,2.42,1,4.79,2.09,7.17,3.13,9.09,4,18.31,7.8,27.26,12.12a93.3,93.3,0,0,1,12.35,7.09c3.72,2.56,7.27,5.35,11,7.88,7,4.72,15.4,8.63,24.08,7.32,8.29-1.25,13.68-7.7,17.83-14.45,5-8.19,9.63-16.69,14.12-25.19q6.9-13.08,13.15-26.51a225.27,225.27,0,0,0,10.8-26.66c2.76-8.66,4.24-17.47,5.57-26.43,1.23-8.35,2.61-16.9,6.35-24.54a40.31,40.31,0,0,1,3.19-5.42l-.43.25c3.14.41,2.65,5.86,2.69,8q.12,6,.07,12-.11,11.91-.87,23.81a426.16,426.16,0,0,1-5.75,47.37q-1.05,5.81-2.24,11.58c-.75,3.59-1.54,7.36-.5,11,.95,3.3,3,6.25,4.82,9.14s3.7,5.85,5.64,8.73a283.82,283.82,0,0,0,56,61.5q2,1.68,4.13,3.31v-.7c-12.13,9.77-25.53,19.66-41.53,21.26-16.61,1.66-32.69-5-46.63-13.41-7.1-4.29-13.87-9.1-20.7-13.8s-13.51-9.07-20.52-13.21a316.13,316.13,0,0,0-88.6-35.5c-2-.46-3.95-.89-5.94-1.32l.37.49A73.17,73.17,0,0,0,464,502.28c-.22-.6-1.19-.34-1,.26Z" transform="translate(-55.46 -167.35)"/><path class="cls-4" d="M472.46,484.35l11.6-20.57c1-1.79,2.09-3.66,3.86-4.7,4.73-2.81,12.92.85,15.15-4.17a25.51,25.51,0,0,0,.75-2.76c1.41-4.48,7.06-5.68,11.72-6.28a219.72,219.72,0,0,0,45.38-10.81,109.45,109.45,0,0,1-13.5,42.33c-7.65,13.57-20.53,26.51-36.1,25.75-8.3-.41-15.86-4.69-23.05-8.86l-17.49-10.13" transform="translate(-55.46 -167.35)"/><path class="cls-5" d="M473.31,484.21a27.36,27.36,0,0,1,10.63-5.79,35.63,35.63,0,0,1,11.77-1.09,53.84,53.84,0,0,1,6.06.72c1.92.33,3.81.88,5.73,1.21a12.54,12.54,0,0,0,8.2-1.27,20,20,0,0,0,6-5.62,84.69,84.69,0,0,0,5-7.79c.8-1.32,1.6-2.64,2.46-3.93a14.5,14.5,0,0,1,3.73-3.72,27.07,27.07,0,0,1,4.92-2.42c1.65-.73,3.3-1.45,4.93-2.21,6.25-2.94,12.42-6.67,16-12.81A23,23,0,0,0,560,437c.25-.58-.61-1.09-.87-.5a23.48,23.48,0,0,1-6.3,8.5,41.09,41.09,0,0,1-8.79,5.57c-3.19,1.58-6.48,2.95-9.73,4.41a16.54,16.54,0,0,0-4.63,3.43,18.26,18.26,0,0,0-2.54,3.6c-1.63,2.62-3.15,5.32-4.88,7.88a24.19,24.19,0,0,1-5.78,6.4,11.37,11.37,0,0,1-7.76,2.12c-1.81-.17-3.58-.75-5.37-1.09-2-.39-4-.69-6-.88-7.8-.72-15.82.51-22.31,5.14-.83.59-1.64,1.24-2.41,1.91-.48.43.23,1.13.71.71Z" transform="translate(-55.46 -167.35)"/><g class="cls-1"><path class="cls-6" d="M494.86,839.12C477,785.55,458.65,732,434.77,680.78c-12.9-27.65-27.59-55.13-32.39-85.27-2-12.6-2-26.27,4.5-37.23,5-8.36,13.38-14.32,22.53-17.6a57.76,57.76,0,0,1,20.81-3.28c13.21.3,25.91,4.85,38.34,9.35,30.6,11.07,61.55,22.32,88.49,40.56,14.81,10,28.17,22,41.47,33.94l34.9,31.32c8.13,7.29,16.34,14.68,22.38,23.78,15.64,23.54,14.17,55,4.62,81.6-3.32,9.24-7.93,18.65-16.21,23.93a7.18,7.18,0,0,1-4.45,1.44c-1.83-.2-3.29-1.56-4.6-2.86-28.56-28.26-57.78-57.47-73.8-94.32,0,14.07,1.7,28.58,8.6,40.84,12.19,21.64,38.27,32.36,51.22,53.55,10.58,17.3,11.63,40.39,26.47,54.21-58.35,4.69-117,1.25-175.44-2.18" transform="translate(-55.46 -167.35)"/><path class="cls-3" d="M495.34,839c-9.5-28.45-19.11-56.87-29.62-85-10.39-27.78-21.77-55.15-34.5-81.94C419.08,646.56,406,620.4,402.38,592c-1.64-13.08-.7-27.41,8.11-38,8.59-10.28,22.14-15.42,35.27-16.09,15-.77,29.32,4.44,43.18,9.46,13.19,4.77,26.38,9.56,39.33,15a297.75,297.75,0,0,1,38.42,19,253.93,253.93,0,0,1,35,25.69c11.51,9.86,22.68,20.13,34,30.25l17.23,15.46c5.14,4.61,10.29,9.23,15,14.33a71.31,71.31,0,0,1,17.66,34.51c2.48,12.48,2,25.45-.45,37.89a125.61,125.61,0,0,1-5.09,18.37c-2.13,5.93-4.72,11.85-8.64,16.84a30,30,0,0,1-6.55,6.27c-1.59,1.09-3.5,2.3-5.52,1.78-1.73-.45-3-1.93-4.25-3.14q-7.08-7-14.09-14.07c-18.73-19-36.89-39-50.3-62.24a173.43,173.43,0,0,1-8.79-17.37c-.21-.48-.93-.22-.93.25,0,13,1.42,26.44,7.2,38.3,5,10.15,13.11,18.13,21.59,25.39s17.58,14.08,24.94,22.6a63.22,63.22,0,0,1,9.32,14.22,150.4,150.4,0,0,1,6.21,16c4,11.61,8,23.78,17.18,32.42l.35-.86c-22.79,1.82-45.66,2.42-68.51,2.26s-45.56-1.08-68.31-2.26c-12.88-.67-25.75-1.42-38.62-2.18-.64,0-.64,1,0,1,22.85,1.34,45.7,2.68,68.58,3.54s45.53,1.23,68.29.64c12.87-.33,25.73-1,38.57-2a.5.5,0,0,0,.35-.85c-8.3-7.83-12.33-18.65-16-29.2s-7-20.93-13.77-29.8C625,757.79,603.6,747.84,591.74,729c-8-12.75-9.82-28.09-9.88-42.85l-.93.25c11,25.11,28.1,46.82,46.67,66.74,4.71,5,9.53,10,14.4,14.92,2.37,2.39,4.75,4.76,7.13,7.14s4.64,4.95,7.23,7a6.09,6.09,0,0,0,7.42.48,27.54,27.54,0,0,0,6.88-5.75,51.85,51.85,0,0,0,8.91-15.37c9.27-23.17,12.43-51,2.53-74.53-5.38-12.77-14.8-22.61-24.93-31.8-11.67-10.58-23.44-21-35.16-31.56-11.16-10-22.27-20.12-34.19-29.24a229.79,229.79,0,0,0-37.33-23.11A427.94,427.94,0,0,0,511,554.47c-6.73-2.55-13.49-5-20.25-7.46-7.09-2.57-14.19-5.19-21.48-7.14-14.08-3.76-29-4.39-42.63,1.36-11.5,4.84-20.71,13.88-24.12,26.06-3.63,13-1.41,27,1.7,39.87,3.39,14,8.65,27.39,14.48,40.49,6,13.52,12.66,26.76,18.8,40.23C444,702.1,450,716.5,455.79,731c11.35,28.6,21.53,57.64,31.38,86.78q3.63,10.73,7.21,21.47c.2.6,1.17.34,1-.27Z" transform="translate(-55.46 -167.35)"/></g><path class="cls-7" d="M58.66,370.84c-2.83,2.32-3.1,6.48-3.14,10.14-.15,13.73-.28,27.58,2.36,41s8.3,26.73,18.21,36.24l2.84-27.46c.79-7.64,1.58-15.41.24-23-1.7-9.6-6.73-18.34-8.68-27.89-.7-3.44-1.07-7.15-3.3-9.86s-7.19-3.45-8.94-.41l8.58,2.89" transform="translate(-55.46 -167.35)"/><g class="cls-1"><path class="cls-8" d="M134.44,507.86a397.13,397.13,0,0,0,55,76c6.36,6.37,13.64,11.82,21.82,14.55,23.64,7.27,46.37-6.37,63.65-21.82.91-.91,2.73-.91,3.64-1.82,13.63-13.64,31.82-20,45.46-33.64,23.64-25.46,27.28-60,31.82-92.75,2.73-17.28-.91-34.55-3.63-51.83-.91-13.64-.91-26.37,1.82-40,.9-6.36.9-13.64-1.82-20-7.28-12.73-19.1-20.91-30.92-30.92-16.37-14.54-29.1-30.91-40.92-50-2.72-3.63-7.27-7.27-11.82-7.27-39.09,3.64-79.1,15.46-103.65,50C154,314.71,150.37,332,138.55,347.44c-8.18,10-17.28,16.37-25.46,25.46-2.73,2.73-1.82,5.46-4.39,8.4" transform="translate(-55.46 -167.35)"/></g><path class="cls-7" d="M356.05,494c-2.47-6.21-1.6-13.27.33-19.68s4.86-12.49,6.54-19c.38-1.5.89-3.26,2.34-3.83,1.7-.67,3.48.77,4.61,2.22,5.38,6.95,6.28,16.31,6.38,25.11.05,4-.14,8.32-2.67,11.4-1.88,2.3-4.75,3.51-7.51,4.62-2.14.87-4.37,1.76-6.67,1.59s-4.68-1.76-4.94-4.05" transform="translate(-55.46 -167.35)"/><path class="cls-3" d="M626.37,496.63a72.69,72.69,0,0,0,18.44,34.31c6.67,6.93,14.65,12.46,21.62,19.09,6,5.73,11.21,12.22,16.4,18.7L700,590.19A56.24,56.24,0,0,1,695,562c.56-6.81,2.37-13.51,2.51-20.34.32-14.59-6.91-28.26-15.24-40.25-4.67-6.73-10.26-13.54-18.09-16-6.8-2.12-14.17-.58-21,1.44a155.47,155.47,0,0,0-18.1,6.62" transform="translate(-55.46 -167.35)"/><path class="cls-3" d="M625.89,496.76a73.18,73.18,0,0,0,7.84,20.18,74,74,0,0,0,13.64,17.23c5.74,5.4,12.11,10.07,17.88,15.44a168.21,168.21,0,0,1,16.14,18.11L697.63,588l2,2.54c.38.47,1-.13.78-.61a56.86,56.86,0,0,1-4.55-31.59c.76-5.54,2-11,2.1-16.64A48.36,48.36,0,0,0,695.91,527c-2.87-9.75-8.17-18.67-14-26.9a52.56,52.56,0,0,0-9.12-10.34,24.22,24.22,0,0,0-12.61-5.61c-5.36-.63-10.78.5-15.91,2a150.23,150.23,0,0,0-15.71,5.43c-1.25.52-2.5,1-3.74,1.58-.59.26-.08,1.12.51.87a152.42,152.42,0,0,1,15.48-5.8c5.1-1.61,10.36-3.11,15.74-3.21a22.94,22.94,0,0,1,13.86,4.21,43.61,43.61,0,0,1,9.53,9.88c5.87,7.94,11.19,16.64,14.35,26A49.93,49.93,0,0,1,697,539.75c.13,5.53-1,11-1.78,16.41a63.35,63.35,0,0,0-.65,15.8,57,57,0,0,0,3.55,15c.45,1.17.95,2.32,1.47,3.45l.79-.61L684.2,569.65a220.25,220.25,0,0,0-15.76-18.35c-5.59-5.59-11.94-10.31-17.85-15.55a77.09,77.09,0,0,1-14.5-16.81,72.09,72.09,0,0,1-8.59-19.81c-.23-.87-.45-1.75-.65-2.63-.14-.63-1.1-.37-1,.26Z" transform="translate(-55.46 -167.35)"/><path class="cls-3" d="M110.88,365.52C118.78,355,126,344,133.18,333s14.36-21.9,22.26-32.33a191.92,191.92,0,0,1,24.66-27.31A127.83,127.83,0,0,1,209,253.59a88.21,88.21,0,0,1,32.86-9.09c1.44-.09,2.87-.14,4.31-.15a.5.5,0,0,0,0-1,86.54,86.54,0,0,0-33.48,7.44A121.86,121.86,0,0,0,183,269.51a177.18,177.18,0,0,0-25.17,26.41c-8.16,10.34-15.51,21.28-22.73,32.28s-14.42,22.18-22.21,32.88q-1.44,2-2.91,3.93c-.39.52.48,1,.86.51Z" transform="translate(-55.46 -167.35)"/><path class="cls-3" d="M106.47,371.82a227.89,227.89,0,0,0,36.67-45c10.81-17.4,19.48-36.54,34.06-50.93,24.68-24.35,61.39-30.72,95.65-36,2.35-.36,4.86-.8,6.57-2.45,1.91-1.84,2.34-4.68,2.84-7.28a60.6,60.6,0,0,1,6.27-17.54c5.62-10.33,14.59-21.39,10.39-32.38-2.42-6.34-8.9-10.42-15.55-11.77s-13.53-.39-20.23.67c-36.89,5.84-75.42,16.06-101.26,43-14.73,15.39-24.13,35.08-31.77,55A424.71,424.71,0,0,0,106,360.43c-.8,5.69-1.4,11.88,1.51,16.84" transform="translate(-55.46 -167.35)"/><path class="cls-3" d="M106.83,372.17a233.38,233.38,0,0,0,40.05-50.57c10.43-17.66,19.75-36.52,35.73-50,14.63-12.31,32.85-19.29,51.2-23.89,9.42-2.37,19-4.14,28.57-5.72,2.34-.39,4.68-.76,7-1.13a47.43,47.43,0,0,0,7.1-1.3,7.62,7.62,0,0,0,4.77-4c1-2.14,1.27-4.56,1.77-6.86A60.37,60.37,0,0,1,288.87,213c2.45-4.54,5.32-8.84,7.68-13.43,2.15-4.21,4-8.81,3.95-13.61a16.88,16.88,0,0,0-5-11.79c-7.41-7.42-18.47-7.52-28.18-6.2s-19.65,3.18-29.33,5.39c-18.75,4.29-37.37,10.43-53.89,20.46A110.77,110.77,0,0,0,162,211.33a120.81,120.81,0,0,0-18.21,24.81,221.37,221.37,0,0,0-13.24,28.51q-6.24,15.92-11.15,32.3t-8.58,33.34q-1.83,8.52-3.3,17.1c-.94,5.47-1.91,11-2.46,16.5-.47,4.64-.35,9.48,2,13.63a.5.5,0,0,0,.86-.5c-2.57-4.52-2.3-9.88-1.67-14.87.7-5.63,1.64-11.24,2.63-16.83q3-16.76,7.29-33.24,4.26-16.27,9.8-32.18c3.55-10.2,7.41-20.32,12-30.12a154.62,154.62,0,0,1,15.43-26.68,105.55,105.55,0,0,1,20.35-20.91c15-11.66,32.89-19.19,51.1-24.39,9.19-2.63,18.54-4.69,27.95-6.41,5-.92,10.07-1.81,15.13-2.47,5.57-.73,11.37-1.09,16.85.37a21.53,21.53,0,0,1,11.41,7.08,16.38,16.38,0,0,1,3,13.47c-1,4.89-3.39,9.36-5.86,13.63-2.61,4.5-5.43,8.89-7.51,13.68a63,63,0,0,0-2.75,7.66c-.69,2.45-1.12,4.93-1.67,7.41s-1.43,4.68-3.73,5.87-4.79,1.28-7.17,1.65c-9.36,1.46-18.71,3-28,5-18.13,3.88-36.33,9.48-51.93,19.78a91.25,91.25,0,0,0-20.89,19.05c-6.3,7.84-11.47,16.48-16.48,25.17-5.18,9-10.29,18-16.17,26.59a226.5,226.5,0,0,1-19.89,25q-5.3,5.76-11,11.17c-.47.44.24,1.15.71.7Z" transform="translate(-55.46 -167.35)"/><g class="cls-9"><path class="cls-10" d="M174.37,501.86l37.94-11.42c4.79-1.44,10.17-2.83,14.57-.47,2.79,1.49,4.75,4.32,7.67,5.54,5.81,2.43,12.34-2.44,18.55-1.43,4.82.78,8.33,4.85,11.39,8.66L281,523.22c-12.62-3.81-25.56-7.66-38.72-6.87-3,.18-6,.59-8.89-.18-3.19-.86-5.83-3.06-8.83-4.43-9.17-4.17-20.11,0-29.88-2.52-8.35-2.12-15.94-9-24.39-7.32" transform="translate(-55.46 -167.35)"/></g><g class="cls-1"><path class="cls-11" d="M172,502.73l23.43,23.12a87.57,87.57,0,0,0,12.17,10.61c11.41,7.7,26.23,9.6,39.63,6.41s25.39-11.14,34.72-21.28" transform="translate(-55.46 -167.35)"/></g><g class="cls-1"><path class="cls-12" d="M129.44,518.83c9.92,10.25,15.52,23.7,21.52,36.41,6.75,14.28,14.6,28.06,20.21,42.86,5.8,15.3,7,31.29,10,47.22a177.5,177.5,0,0,0,15.43,45,185.91,185.91,0,0,0,29,42.59c-5.26-7.51-5.12-17.34-5.49-26.12-.44-10.41-.78-21.22,2.69-31.22,3.11-9,10.1-15.34,15.12-23.15,5.24-8.16,5.43-18.12,8.1-27.19A55.25,55.25,0,0,1,262.88,599c-5.59-2.57-12.28-5.24-18.5-5.34a40,40,0,0,0-17.63,4.71c-10.91,5.45-23.64,5.45-33.65-1.82-20-14.55-26.36-37.28-40-57.28-7.28-9.1-14.55-17.28-24.12-22.48" transform="translate(-55.46 -167.35)"/></g><path class="cls-3" d="M127.8,516.68a4.29,4.29,0,0,0,1.94,2.07.51.51,0,0,0,.69-.18.5.5,0,0,0-.18-.68,5.07,5.07,0,0,1-.55-.34c-.08-.07.09.07,0,0l-.06,0-.12-.1a2.5,2.5,0,0,1-.23-.23l-.21-.24s.06.08,0,0l-.05-.06-.1-.15a5.12,5.12,0,0,1-.3-.57.47.47,0,0,0-.3-.23.5.5,0,0,0-.38,0,.5.5,0,0,0-.23.3.59.59,0,0,0,0,.39Z" transform="translate(-55.46 -167.35)"/><path class="cls-3" d="M112.94,529.9C105.11,550,92.57,569.53,93.7,591.08c1.14,21.91,16.57,40.77,34.58,53.29,10.76,7.47,23.72,13.46,36.6,11.11a72.55,72.55,0,0,1-10.09-38.18c.17-8.56,1.86-17.12.89-25.62-.75-6.5-3-12.73-5.39-18.83a525.36,525.36,0,0,0-22.54-50.16,45.06,45.06,0,0,0-25.27,25" transform="translate(-55.46 -167.35)"/><path class="cls-3" d="M112.46,529.77c-4.3,11-9.84,21.53-14,32.63-3.93,10.55-6.43,21.78-4.87,33.07,1.41,10.23,5.93,19.79,12,28a95.67,95.67,0,0,0,22.74,21.56c9.43,6.49,20.65,12,32.38,11.4A37.52,37.52,0,0,0,165,656a.5.5,0,0,0,.29-.74A72.26,72.26,0,0,1,156.36,631a70.57,70.57,0,0,1-1.08-13c.05-4.74.59-9.45.93-14.18a62.34,62.34,0,0,0-.28-14,70,70,0,0,0-3.65-13.16c-3.19-8.69-6.79-17.25-10.52-25.72s-7.79-17.08-12-25.45l-1.56-3.06a.5.5,0,0,0-.57-.23,45.77,45.77,0,0,0-21.91,18.1,44.29,44.29,0,0,0-3.7,7.26c-.24.6.72.86,1,.27a44.7,44.7,0,0,1,17.86-21.14,43.09,43.09,0,0,1,7.06-3.53l-.57-.23q6.41,12.46,12.14,25.25t10.81,25.95a90.53,90.53,0,0,1,4.15,13,52.72,52.72,0,0,1,1,14.07c-.24,4.75-.82,9.48-1,14.24A73.15,73.15,0,0,0,162.89,653c.5.93,1,1.85,1.56,2.77l.3-.74c-11.63,2.08-23.17-2.69-32.83-8.81a96.73,96.73,0,0,1-23.51-20.77c-6.35-7.88-11.27-17.06-13.29-27-2.21-10.95-.38-22,3.18-32.5C102,555,107.37,544.64,111.82,534c.55-1.31,1.08-2.62,1.6-4,.23-.6-.73-.86-1-.26Z" transform="translate(-55.46 -167.35)"/><path class="cls-3" d="M118.37,837.34A41.13,41.13,0,0,1,139.59,836l13.69-29c4-8.51,8.27-17.32,15.6-23.21,3-2.39,6.35-4.22,9.5-6.37a53.56,53.56,0,0,0,19.19-23.91l-34.9.86c-3.88.1-7.86.21-11.49,1.62-5.16,2-9,6.37-12.51,10.63-8,9.66-15.93,20.16-18,32.54-2.21,13.41,2.75,27.7-1.84,40.49l3-10.8" transform="translate(-55.46 -167.35)"/><path class="cls-3" d="M118.51,837.82a40.85,40.85,0,0,1,21-1.38.5.5,0,0,0,.56-.23l9.87-20.91c2.91-6.17,5.65-12.46,9-18.39,3.18-5.59,7.09-10.68,12.42-14.38,2.83-1.95,5.84-3.63,8.61-5.66a53.89,53.89,0,0,0,18.11-23.27.51.51,0,0,0-.48-.64l-31,.77c-4.73.11-9.71-.1-14.29,1.32-4.07,1.25-7.42,4-10.31,7s-5.67,6.58-8.31,10a94.35,94.35,0,0,0-7.41,10.88,52,52,0,0,0-5.09,11.91,48.6,48.6,0,0,0-1.52,13.43c.12,9.25,1.92,18.74-.25,27.89a29.07,29.07,0,0,1-1,3.3l1,.26,3-10.8a.5.5,0,0,0-1-.26l-3,10.8c-.17.62.76.86,1,.26,3.09-8.7,1.88-18,1.42-27a62.07,62.07,0,0,1,.47-13.76,45.36,45.36,0,0,1,4.14-12.31c3.86-7.77,9.36-14.68,15-21.25,2.69-3.16,5.63-6.28,9.37-8.21,4.19-2.17,9-2.24,13.59-2.35l30.54-.76,3.74-.09-.48-.63a53.16,53.16,0,0,1-16.69,21.95c-2.68,2.07-5.61,3.76-8.43,5.62a38.62,38.62,0,0,0-7.42,6.25,50.15,50.15,0,0,0-5.47,7.48c-3.46,5.71-6.14,11.88-9,17.91l-10.93,23.17.56-.23a41.8,41.8,0,0,0-21.48,1.38c-.61.2-.35,1.17.27,1Z" transform="translate(-55.46 -167.35)"/><path class="cls-3" d="M249.68,833.8a.5.5,0,0,0,0-1,.5.5,0,0,0,0,1Z" transform="translate(-55.46 -167.35)"/><path class="cls-3" d="M244.91,840a.5.5,0,0,0,0-1,.5.5,0,0,0,0,1Z" transform="translate(-55.46 -167.35)"/><path class="cls-13" d="M78.62,344.56a.5.5,0,0,0,0-1,.5.5,0,0,0,0,1Z" transform="translate(-55.46 -167.35)"/><path class="cls-12" d="M250.65,837.47a.5.5,0,0,0,0-1,.5.5,0,0,0,0,1Z" transform="translate(-55.46 -167.35)"/><path class="cls-12" d="M239.85,844.34a.5.5,0,0,0,0-1,.5.5,0,0,0,0,1Z" transform="translate(-55.46 -167.35)"/><g class="cls-1"><path class="cls-14" d="M240.88,839.53c-18.46-51.64-13.33-111.2,13.68-158.93,3.74,20.64-1.84,41.66-5.62,62.29s-5.45,43.22,5.07,61.37c-3.07-25.39-6.12-51.11-2.6-76.44,1.82-13.06,5.37-25.83,7.4-38.86,4.8-30.76,1.05-62.22,3.62-93.25,1.13-13.7,4-28.27,13.73-38,12-12,30.88-13,47.83-12.43,6.62.24,13.46.67,19.39,3.64,6.2,3.09,10.78,8.62,15.05,14.06,63.17,80.39,103.4,177.25,125.29,277.11-36.83-4.33-74.05-3.56-111.12-2.79L239,840.13l-3.31-7" transform="translate(-55.46 -167.35)"/></g><g class="cls-1"><path class="cls-15" d="M170.38,503c3.61-.68,7.14.57,10.41,2s6.58,3.06,10.17,3.78c7.44,1.48,15,.08,22.54.48a29,29,0,0,1,10.81,2.54c3.22,1.49,6.32,3.4,9.83,4.21,4,.91,8-.09,12-.48a55.26,55.26,0,0,1,11.21.05,54.52,54.52,0,0,1,21.05,6.65c.79.44,1.57.91,2.33,1.4.55.34,1.05-.52.51-.87A55.18,55.18,0,0,0,260.54,515a56.12,56.12,0,0,0-16.78-.19,40.61,40.61,0,0,1-6.51.59c-3.83-.1-7.21-1.88-10.56-3.55a38.79,38.79,0,0,0-5-2.18,28.36,28.36,0,0,0-5.32-1.16c-7.59-1-15.26.57-22.85-.33a37,37,0,0,1-10.69-3.36c-3.22-1.44-6.58-2.95-10.17-3a12.78,12.78,0,0,0-2.54.24c-.63.12-.37,1.08.26,1Z" transform="translate(-55.46 -167.35)"/></g></svg>